<?xml version="1.0"?><svg viewBox="0 0 1522.667 1706.667" xmlns="http://www.w3.org/2000/svg" xmlns:xlink="http://www.w3.org/1999/xlink"><style>:root>svg{display:none}:root>svg:target{display:block}</style><svg viewBox="0 0 200 200" version="1.0" id="svg" xmlns="http://www.w3.org/2000/svg"><defs><radialGradient id="ac" gradientUnits="userSpaceOnUse" cy="100" cx="100" r="100"><stop stop-color="#fff" stop-opacity="0" offset="0"/><stop stop-color="#fff" stop-opacity="0" offset=".806"/><stop stop-color="#b00000" stop-opacity=".735" offset="1"/></radialGradient><linearGradient id="aa" y2="500.37" gradientUnits="userSpaceOnUse" x2="444.54" y1="500.37" x1="364.96"><stop stop-color="red" offset="0"/><stop stop-color="#f30000" offset=".889"/><stop stop-color="#e70000" offset="1"/></linearGradient></defs><g transform="translate(-278 -354.36)"><path d="M378 453.77s-13.75 8.52-12.33 23.79c1.42 15.25 26.72 39.51 35.33 50.73 5.08 6.62 7.41 13.49 8.51 18.06 12.92-4.43 24.6-11.54 34.42-20.62-4.16-3.98-11.17-10.44-16.67-14.06-8.18-5.39-33.61-11.74-47.78-25.13-13.78-13.02-1.48-32.77-1.48-32.77z" fill="url(#aa)" fill-rule="evenodd"/><path stroke-linejoin="round" d="M475.228 454.36a97.223 97.223 0 11-194.446 0 97.223 97.223 0 11194.446 0z" stroke="red" stroke-width="5.5556" fill="#fff"/><path id="ab" d="M378 453.46s-13.75 8.83-12.33 24.1c1.42 15.25 26.72 39.51 35.33 50.73 5.08 6.62 7.41 13.49 8.51 18.06 12.92-4.43 24.6-11.54 34.42-20.62-4.16-3.98-11.17-10.44-16.67-14.06-8.18-5.39-33.61-11.74-47.78-25.13-13.78-13.02-1.48-33.08-1.48-33.08z" fill="red" fill-rule="evenodd"/><use xlink:href="#ab" transform="rotate(45 377.998 453.46)" height="200" width="200"/><use xlink:href="#ab" transform="rotate(90 378 453.46)" height="200" width="200"/><use xlink:href="#ab" transform="scale(-1) rotate(-45 -1094.746 912.566)" height="200" width="200"/><use xlink:href="#ab" transform="rotate(180 378 453.46)" height="200" width="200"/><use xlink:href="#ab" transform="scale(-1) rotate(45 1094.756 -912.571)" height="200" width="200"/><use xlink:href="#ab" transform="rotate(-90 378 453.46)" height="200" width="200"/><use xlink:href="#ab" transform="rotate(-45 377.997 453.456)" height="200" width="200"/><path d="M200 100a100 100 0 11-200 0 100 100 0 11200 0z" fill="url(#ac)" transform="translate(278 354.36)"/></g></svg><svg viewBox="0 0 420.32 217.57" id="svg1" xmlns="http://www.w3.org/2000/svg"><g stroke-linejoin="round" stroke="#000" stroke-linecap="round" fill="#fff"><path d="M19.419 149.07l-17.231 8.216L1 177.238l17.23.586zM403.031 148.6l15.574 4.614.708 21.916h-13.45z" stroke-width="2"/><path d="M13.738 178.3l393.01-2.06c-.859-62.032-4.852-169.38-37.288-170.79-100.2-5.58-197.51-6.386-292.11.347-28.637 14.5-53.407 49.043-61.015 88.606-5.97 31.042-2.426 66.364-2.591 83.897z" stroke-width="2"/><path d="M130.251 174.22c1.592 26.697-28.945 50.409-54.84 39.735-25.926-9.005-36.088-44.161-18.981-65.259 12.322-17.181 39.098-22.419 56.181-8.974 10.962 7.909 18.064 21.055 17.64 34.498z" stroke-width="2"/><path d="M112.791 173.7c.87 14.6-15.817 27.568-29.968 21.73-14.167-4.925-19.72-24.151-10.372-35.689 6.734-9.396 21.365-12.261 30.701-4.908 5.99 4.325 9.871 11.514 9.64 18.866zM28.294 97.33c3.45-33.976 21.796-52.672 45.487-78.237h18.195l-.91 77.328zM99.251 18.18v78.237h92.793l.91-78.237zM201.141 16.36l-.91 79.147h98.252V17.27zM306.671 17.27l1.82 78.237h81.876c.713-26.109-6.44-53.823-19.104-76.418zM14.663 107.48l390.26-1.056-.925 13.91-390.26 2.465z"/><g><path d="M379.521 168.762c1.592 26.697-28.945 50.409-54.84 39.735-25.926-9.006-36.088-44.161-18.981-65.26 12.322-17.18 39.098-22.418 56.181-8.973 10.962 7.908 18.064 21.055 17.64 34.498z" stroke-width="2"/><path d="M362.061 168.242c.87 14.6-15.817 27.568-29.968 21.73-14.167-4.925-19.72-24.151-10.372-35.69 6.734-9.395 21.365-12.26 30.701-4.907 5.99 4.325 9.871 11.514 9.64 18.866z"/></g></g></svg><svg version="1.0" viewBox="0 0 1142 1280" id="svg2" xmlns="http://www.w3.org/2000/svg"><path d="M305.5 9.1C290.1 14 268.3 21 257 24.6c-11.3 3.6-21.6 6.9-23 7.4-2.1.7-14 4.5-53.5 17.1C73.9 83 6.6 105 6.8 106c.1.6 81.9 116.4 181.6 257.3C288.1 504.2 370.3 620.4 371 621.6c1.2 2-12.5 21.6-184.6 264.5L.5 1148.5.2 1159l-.3 10.5 24.3 8.9c21.8 7.9 198.7 73 224.8 82.6 52.7 19.5 51 19 58.5 19h7l127.9-189.1c76.7-113.3 128.3-188.6 128.8-188.1s55.9 85.5 123.1 188.8l122.2 187.9 7 .3c6.8.3 8.4-.2 44-12.8 20.4-7.3 44.4-15.8 53.5-19 9.1-3.2 33.2-11.8 53.5-19 20.4-7.2 48.3-17.1 62-22 13.8-4.9 37.8-13.4 53.5-19 15.7-5.6 33.8-12 40.2-14.3l11.8-4.1v-20.2L957.4 890C855.8 747.3 771.6 628.8 770.3 626.8l-2.5-3.7 178.8-256.3c98.3-141 179.5-257.5 180.5-258.9l1.8-2.5-8.2-2.8c-4.5-1.5-19.9-6.8-34.2-11.6-41.5-14.1-84.2-28.6-109-37-12.6-4.3-46.8-15.9-76-25.8-29.1-9.9-59.7-20.3-67.9-23.1-12.6-4.3-16-5.1-22-5h-7.1L688.4 175.3c-63.9 96.3-116.5 175.2-117 175.3-.5.2-50.9-78.6-112-174.9L348.2.5l-7.3-.2c-6.9-.2-9.4.4-35.4 8.8z"/></svg></svg>